<svg xmlns="http://www.w3.org/2000/svg" xmlns:xlink="http://www.w3.org/1999/xlink" version="1.1" width="256" height="256" viewBox="0 0 256 256" xml:space="preserve">

<defs>
</defs>
<g style="stroke: none; stroke-width: 0; stroke-dasharray: none; stroke-linecap: butt; stroke-linejoin: miter; stroke-miterlimit: 10; fill: none; fill-rule: nonzero; opacity: 1;" transform="translate(1.4065934065934016 1.4065934065934016) scale(2.81 2.81)" >
	<path d="M 33.717 8.769 V 0.816 c 0 -0.722 -0.87 -1.087 -1.385 -0.581 l -5.322 4.319 c -0.182 0.148 -0.443 0.148 -0.625 0 l -5.322 -4.319 c -0.515 -0.506 -1.385 -0.142 -1.385 0.581 v 7.953 C 24.452 10.589 29.113 10.232 33.717 8.769 z" style="stroke: none; stroke-width: 1; stroke-dasharray: none; stroke-linecap: butt; stroke-linejoin: miter; stroke-miterlimit: 10; fill: rgb(254,80,95); fill-rule: nonzero; opacity: 1;" transform=" matrix(1 0 0 1 0 0) " stroke-linecap="round" />
	<path d="M 15.346 8.769 c -1.832 0 -3.317 1.485 -3.317 3.317 v 74.596 c 0 1.832 1.485 3.317 3.317 3.317 h 49.986 c 3.696 -25.991 3.42 -53.149 0 -81.231 H 15.346 z" style="stroke: none; stroke-width: 1; stroke-dasharray: none; stroke-linecap: butt; stroke-linejoin: miter; stroke-miterlimit: 10; fill: rgb(194,31,52); fill-rule: nonzero; opacity: 1;" transform=" matrix(1 0 0 1 0 0) " stroke-linecap="round" />
	<path d="M 71.687 89.739 c 0.794 -0.336 1.43 -0.972 1.765 -1.765 C 73.117 88.768 72.481 89.404 71.687 89.739 z" style="stroke: none; stroke-width: 1; stroke-dasharray: none; stroke-linecap: butt; stroke-linejoin: miter; stroke-miterlimit: 10; fill: rgb(194,31,52); fill-rule: nonzero; opacity: 1;" transform=" matrix(1 0 0 1 0 0) " stroke-linecap="round" />
	<path d="M 70.396 8.769 h -5.064 V 90 h 5.064 c 1.832 0 3.317 -1.485 3.317 -3.317 V 57.396 v -16.61 V 12.087 C 73.714 10.255 72.228 8.769 70.396 8.769 z" style="stroke: none; stroke-width: 1; stroke-dasharray: none; stroke-linecap: butt; stroke-linejoin: miter; stroke-miterlimit: 10; fill: rgb(222,54,72); fill-rule: nonzero; opacity: 1;" transform=" matrix(1 0 0 1 0 0) " stroke-linecap="round" />
	<path d="M 76.316 40.786 H 61.927 c -4.587 0 -8.305 3.718 -8.305 8.305 c 0 4.587 3.718 8.305 8.305 8.305 h 14.388 c 0.915 0 1.656 -0.741 1.656 -1.656 V 42.442 C 77.971 41.527 77.23 40.786 76.316 40.786 z M 59.499 51.743 c -1.465 0 -2.652 -1.187 -2.652 -2.652 c 0 -1.465 1.187 -2.652 2.652 -2.652 c 1.465 0 2.652 1.187 2.652 2.652 C 62.15 50.555 60.963 51.743 59.499 51.743 z" style="stroke: none; stroke-width: 1; stroke-dasharray: none; stroke-linecap: butt; stroke-linejoin: miter; stroke-miterlimit: 10; fill: rgb(194,218,225); fill-rule: nonzero; opacity: 1;" transform=" matrix(1 0 0 1 0 0) " stroke-linecap="round" />
	<path d="M 41.873 70.703 c -6.287 0 -12.809 -7.739 -16.893 -16.35 c -4.678 -9.865 -6.446 -21.486 0.149 -25.21 c 0.425 -0.24 0.906 -0.37 1.428 -0.386 c 0.76 -0.023 2.141 -0.109 3.437 -0.195 l 0 0 c 0.766 -0.051 1.501 -0.103 2.064 -0.143 c 1.356 -0.107 2.567 0.834 2.827 2.167 l 1.613 8.253 c 0.18 0.918 -0.139 1.879 -0.834 2.508 l -4 3.62 l 4.815 10.152 l 5.333 -0.808 c 0.928 -0.136 1.873 0.22 2.471 0.941 l 5.372 6.473 c 0.865 1.044 0.816 2.573 -0.113 3.558 l -1.388 1.477 c -0.894 0.956 -1.85 1.988 -2.355 2.569 c -0.344 0.395 -0.749 0.685 -1.202 0.861 C 43.7 70.539 42.789 70.703 41.873 70.703 z M 47.344 63.638 L 47.344 63.638 L 47.344 63.638 z" style="stroke: none; stroke-width: 1; stroke-dasharray: none; stroke-linecap: butt; stroke-linejoin: miter; stroke-miterlimit: 10; fill: rgb(255,205,56); fill-rule: nonzero; opacity: 1;" transform=" matrix(1 0 0 1 0 0) " stroke-linecap="round" />
</g>
</svg>