<svg xmlns="http://www.w3.org/2000/svg" xmlns:xlink="http://www.w3.org/1999/xlink" version="1.1" width="256" height="256" viewBox="0 0 256 256" xml:space="preserve">

<defs>
</defs>
<g style="stroke: none; stroke-width: 0; stroke-dasharray: none; stroke-linecap: butt; stroke-linejoin: miter; stroke-miterlimit: 10; fill: none; fill-rule: nonzero; opacity: 1;" transform="translate(1.4065934065934016 1.4065934065934016) scale(2.81 2.81)" >
	<path d="M 50.415 63.799 c 0.716 0 1.296 -0.58 1.296 -1.296 V 60.89 c 0 -1.373 0.846 -2.627 2.143 -3.075 c 1.042 -0.36 2.056 -0.782 3.036 -1.261 c 1.227 -0.6 2.705 -0.318 3.671 0.648 l 1.156 1.156 c 0.506 0.506 1.327 0.506 1.833 0 l 7.658 -7.658 c 0.506 -0.506 0.506 -1.327 0 -1.833 l -1.156 -1.156 c -0.966 -0.966 -1.248 -2.443 -0.648 -3.671 c 0.479 -0.98 0.901 -1.994 1.261 -3.036 c 0.448 -1.297 1.702 -2.143 3.075 -2.143 h 1.613 c 0.716 0 1.296 -0.58 1.296 -1.296 V 26.735 c 0 -0.716 -0.58 -1.297 -1.297 -1.297 H 73.74 c -1.373 0 -2.627 -0.846 -3.075 -2.143 c -0.36 -1.042 -0.782 -2.056 -1.261 -3.036 c -0.6 -1.227 -0.317 -2.705 0.648 -3.671 l 1.156 -1.156 c 0.506 -0.506 0.506 -1.327 0 -1.833 l -7.658 -7.658 c -0.506 -0.506 -1.327 -0.506 -1.834 0 l -1.156 1.156 c -0.966 0.966 -2.443 1.248 -3.671 0.648 c -0.98 -0.479 -1.994 -0.901 -3.036 -1.261 c -1.297 -0.448 -2.143 -1.702 -2.143 -3.075 V 1.796 c 0 -0.716 -0.58 -1.296 -1.296 -1.296 H 39.585 c -0.716 0 -1.296 0.58 -1.296 1.297 v 1.612 c 0 1.373 -0.846 2.627 -2.143 3.075 c -1.042 0.36 -2.056 0.782 -3.036 1.261 c -1.227 0.6 -2.705 0.318 -3.671 -0.648 l -1.156 -1.156 c -0.506 -0.506 -1.327 -0.506 -1.833 0 l -7.658 7.658 c -0.506 0.506 -0.506 1.327 0 1.833 l 1.156 1.156 c 0.966 0.966 1.248 2.443 0.648 3.671 c -0.479 0.98 -0.901 1.994 -1.261 3.036 c -0.448 1.297 -1.702 2.143 -3.075 2.143 h -1.613 c -0.716 0 -1.296 0.58 -1.296 1.296 v 10.829 c 0 0.716 0.58 1.296 1.296 1.296 h 1.613 c 1.373 0 2.627 0.846 3.075 2.143 c 0.36 1.042 0.782 2.056 1.261 3.036 c 0.6 1.227 0.318 2.705 -0.648 3.671 l -1.156 1.156 c -0.506 0.506 -0.506 1.327 0 1.833 l 7.658 7.658 c 0.506 0.506 1.327 0.506 1.833 0 l 1.156 -1.156 c 0.966 -0.966 2.443 -1.248 3.671 -0.648 c 0.98 0.479 1.994 0.901 3.036 1.261 c 1.297 0.448 2.143 1.702 2.143 3.075 v 1.613 c 0 0.716 0.58 1.296 1.296 1.296 h 0.174 M 54.184 32.897 c -0.352 4.466 -3.971 8.085 -8.437 8.437 c -5.677 0.448 -10.38 -4.255 -9.932 -9.932 c 0.352 -4.466 3.971 -8.085 8.437 -8.437 C 49.93 22.517 54.632 27.22 54.184 32.897 z" style="stroke: none; stroke-width: 1; stroke-dasharray: none; stroke-linecap: butt; stroke-linejoin: miter; stroke-miterlimit: 10; fill: rgb(62,108,144); fill-rule: nonzero; opacity: 1;" transform=" matrix(1 0 0 1 0 0) " stroke-linecap="round" />
	<path d="M 43.645 15.498 c -8.097 0.638 -14.657 7.198 -15.295 15.295 C 27.537 41.087 36.063 49.612 46.356 48.8 c 8.097 -0.639 14.657 -7.199 15.295 -15.296 C 62.462 23.212 53.937 14.687 43.645 15.498 z M 54.184 32.897 c -0.352 4.466 -3.971 8.085 -8.437 8.437 c -5.677 0.448 -10.38 -4.255 -9.932 -9.932 c 0.352 -4.466 3.971 -8.085 8.437 -8.437 C 49.93 22.517 54.632 27.22 54.184 32.897 z" style="stroke: none; stroke-width: 1; stroke-dasharray: none; stroke-linecap: butt; stroke-linejoin: miter; stroke-miterlimit: 10; fill: rgb(255,224,125); fill-rule: nonzero; opacity: 1;" transform=" matrix(1 0 0 1 0 0) " stroke-linecap="round" />
	<path d="M 23.57 30.905 c -0.013 0 -0.026 0 -0.04 -0.001 c -0.275 -0.022 -0.481 -0.263 -0.459 -0.538 c 0.839 -10.646 9.5 -19.306 20.145 -20.145 c 0.271 -0.016 0.516 0.184 0.538 0.459 c 0.021 0.275 -0.184 0.516 -0.459 0.538 c -10.159 0.801 -18.425 9.066 -19.226 19.226 C 24.048 30.706 23.829 30.905 23.57 30.905 z" style="stroke: none; stroke-width: 1; stroke-dasharray: none; stroke-linecap: butt; stroke-linejoin: miter; stroke-miterlimit: 10; fill: rgb(18,34,46); fill-rule: nonzero; opacity: 1;" transform=" matrix(1 0 0 1 0 0) " stroke-linecap="round" />
	<path d="M 59.534 48.463 c -0.135 0 -0.27 -0.055 -0.368 -0.161 c -0.187 -0.203 -0.174 -0.52 0.029 -0.707 c 3.931 -3.617 6.323 -8.497 6.737 -13.741 c 0.021 -0.275 0.284 -0.477 0.537 -0.459 c 0.275 0.022 0.481 0.263 0.459 0.538 c -0.434 5.496 -2.939 10.609 -7.056 14.398 C 59.776 48.419 59.655 48.463 59.534 48.463 z" style="stroke: none; stroke-width: 1; stroke-dasharray: none; stroke-linecap: butt; stroke-linejoin: miter; stroke-miterlimit: 10; fill: rgb(18,34,46); fill-rule: nonzero; opacity: 1;" transform=" matrix(1 0 0 1 0 0) " stroke-linecap="round" />
	<polygon points="48.9,52.98 54.43,45.92 45.18,40.85 35.79,45.83 41.1,52.98 37.86,79 45,89.5 52.21,79 48.97,52.98 " style="stroke: none; stroke-width: 1; stroke-dasharray: none; stroke-linecap: butt; stroke-linejoin: miter; stroke-miterlimit: 10; fill: rgb(221,99,110); fill-rule: nonzero; opacity: 1;" transform="  matrix(1 0 0 1 0 0) "/>
	<path d="M 75.353 24.938 H 73.74 c -1.184 0 -2.229 -0.726 -2.603 -1.806 c -0.359 -1.042 -0.791 -2.083 -1.284 -3.093 c -0.5 -1.022 -0.278 -2.268 0.553 -3.098 l 1.155 -1.156 c 0.34 -0.339 0.526 -0.791 0.526 -1.27 c 0 -0.48 -0.187 -0.931 -0.526 -1.271 l -7.657 -7.658 c -0.701 -0.7 -1.84 -0.7 -2.541 0 l -1.155 1.156 c -0.829 0.831 -2.074 1.053 -3.098 0.553 c -0.999 -0.489 -2.04 -0.921 -3.093 -1.285 c -1.08 -0.373 -1.807 -1.419 -1.807 -2.602 V 1.796 C 52.211 0.806 51.405 0 50.415 0 h -10.83 c -0.991 0 -1.796 0.806 -1.796 1.796 v 1.613 c 0 1.183 -0.726 2.229 -1.807 2.602 c -1.05 0.363 -2.09 0.795 -3.092 1.285 c -1.022 0.5 -2.266 0.279 -3.097 -0.552 l -1.156 -1.156 c -0.7 -0.7 -1.84 -0.699 -2.541 0 l -7.657 7.658 c -0.339 0.339 -0.526 0.791 -0.526 1.271 c 0 0.479 0.187 0.931 0.526 1.27 l 1.156 1.156 c 0.83 0.83 1.052 2.075 0.553 3.098 c -0.489 1 -0.921 2.041 -1.285 3.093 c -0.373 1.08 -1.419 1.806 -2.602 1.806 h -1.613 c -0.991 0 -1.796 0.806 -1.796 1.796 v 10.83 c 0 0.991 0.806 1.796 1.796 1.796 h 1.613 c 1.183 0 2.229 0.726 2.602 1.807 c 0.364 1.053 0.796 2.093 1.285 3.092 c 0.5 1.022 0.277 2.268 -0.553 3.098 l -1.156 1.155 c -0.7 0.7 -0.7 1.841 0 2.541 l 7.657 7.657 c 0.678 0.68 1.861 0.68 2.541 0 l 1.156 -1.156 c 0.831 -0.83 2.075 -1.054 3.098 -0.552 c 1.009 0.493 2.05 0.925 3.092 1.284 c 1.081 0.373 1.807 1.419 1.807 2.603 v 1.612 c 0 0.858 0.604 1.574 1.409 1.752 l -1.866 14.852 c -0.016 0.122 0.015 0.246 0.085 0.348 l 7.172 10.331 C 44.683 89.92 44.836 90 45 90 s 0.317 -0.08 0.411 -0.215 l 7.172 -10.331 c 0.07 -0.102 0.101 -0.225 0.085 -0.348 l -1.866 -14.852 c 0.805 -0.178 1.409 -0.894 1.409 -1.752 V 60.89 c 0 -1.184 0.727 -2.229 1.807 -2.603 c 1.051 -0.363 2.091 -0.795 3.093 -1.284 c 1.021 -0.5 2.269 -0.278 3.098 0.552 l 1.155 1.156 c 0.701 0.701 1.84 0.701 2.541 0 l 7.657 -7.657 c 0.7 -0.7 0.7 -1.841 0 -2.541 l -1.155 -1.155 c -0.831 -0.831 -1.053 -2.076 -0.553 -3.098 c 0.492 -1.008 0.924 -2.049 1.284 -3.092 c 0.373 -1.081 1.419 -1.807 2.603 -1.807 h 1.612 c 0.991 0 1.797 -0.806 1.797 -1.796 V 26.735 C 77.149 25.744 76.344 24.938 75.353 24.938 z M 45 88.623 l -6.652 -9.582 l 3.156 -25.113 h 6.993 l 3.156 25.113 L 45 88.623 z M 35.618 45.355 c -4.696 -3.338 -7.226 -8.742 -6.77 -14.522 c 0.618 -7.84 6.996 -14.218 14.836 -14.836 c 4.765 -0.375 9.416 1.336 12.774 4.693 c 3.358 3.358 5.069 8.015 4.695 12.774 c -0.375 4.758 -2.847 9.062 -6.779 11.871 l -7.548 -3.65 c 4.213 -0.809 7.513 -4.401 7.857 -8.749 c 0.226 -2.852 -0.801 -5.643 -2.814 -7.656 c -2.013 -2.013 -4.804 -3.042 -7.655 -2.814 c -4.701 0.371 -8.525 4.195 -8.896 8.896 c -0.225 2.852 0.801 5.643 2.814 7.656 c 1.39 1.39 3.152 2.306 5.048 2.668 L 35.618 45.355 z M 45.708 40.835 c -2.552 0.207 -5.063 -0.718 -6.87 -2.524 c -1.806 -1.806 -2.726 -4.31 -2.524 -6.869 c 0.333 -4.216 3.762 -7.646 7.978 -7.978 c 0.232 -0.019 0.464 -0.027 0.695 -0.027 c 2.313 0 4.532 0.91 6.174 2.551 c 1.807 1.806 2.727 4.31 2.525 6.87 C 53.354 37.073 49.924 40.503 45.708 40.835 L 45.708 40.835 z M 45 41.914 l 8.673 4.195 l -5.022 6.819 h -7.303 l -5.022 -6.806 L 45 41.914 z M 76.149 37.564 c 0 0.439 -0.357 0.796 -0.797 0.796 H 73.74 c -1.609 0 -3.035 0.997 -3.548 2.48 c -0.347 1.005 -0.763 2.008 -1.237 2.979 c -0.688 1.406 -0.389 3.111 0.744 4.244 l 1.155 1.155 c 0.311 0.311 0.311 0.816 0 1.127 l -7.657 7.657 c -0.311 0.311 -0.816 0.311 -1.127 0 l -1.155 -1.156 c -1.133 -1.133 -2.837 -1.433 -4.244 -0.743 c -0.965 0.471 -1.968 0.888 -2.979 1.237 c -1.483 0.513 -2.48 1.938 -2.48 3.548 v 1.612 c 0 0.347 -0.226 0.635 -0.536 0.744 l -1.221 -9.721 l 5.341 -7.253 c 4.269 -2.977 6.951 -7.608 7.354 -12.729 c 0.398 -5.052 -1.419 -9.995 -4.984 -13.56 S 48.658 14.604 43.605 15 c -8.326 0.656 -15.099 7.429 -15.755 15.754 c -0.482 6.114 2.338 12.059 7.36 15.541 l 5.336 7.23 l -1.222 9.721 c -0.31 -0.109 -0.536 -0.397 -0.536 -0.744 V 60.89 c 0 -1.609 -0.997 -3.035 -2.48 -3.548 c -1.004 -0.347 -2.007 -0.763 -2.979 -1.237 c -1.407 -0.689 -3.112 -0.39 -4.244 0.743 l -1.156 1.156 c -0.302 0.301 -0.825 0.301 -1.126 0 l -7.657 -7.657 c -0.31 -0.311 -0.31 -0.816 0 -1.127 l 1.156 -1.155 c 1.132 -1.132 1.431 -2.838 0.744 -4.244 c -0.471 -0.963 -0.888 -1.965 -1.238 -2.979 c -0.513 -1.484 -1.938 -2.48 -3.547 -2.48 h -1.613 c -0.439 0 -0.796 -0.357 -0.796 -0.796 v -10.83 c 0 -0.439 0.357 -0.796 0.796 -0.796 h 1.613 c 1.609 0 3.035 -0.997 3.547 -2.479 c 0.35 -1.014 0.767 -2.016 1.238 -2.98 c 0.687 -1.406 0.388 -3.112 -0.744 -4.244 l -1.156 -1.156 c -0.311 -0.311 -0.311 -0.816 0 -1.126 l 7.657 -7.658 c 0.312 -0.311 0.817 -0.31 1.126 0 l 1.156 1.156 c 1.132 1.132 2.838 1.432 4.244 0.744 c 0.965 -0.472 1.968 -0.888 2.979 -1.238 c 1.484 -0.513 2.48 -1.938 2.48 -3.547 V 1.796 C 38.789 1.357 39.146 1 39.585 1 h 10.83 c 0.438 0 0.796 0.357 0.796 0.796 v 1.613 c 0 1.609 0.997 3.035 2.48 3.547 c 1.014 0.351 2.017 0.768 2.979 1.238 c 1.406 0.687 3.112 0.388 4.244 -0.744 l 1.155 -1.156 c 0.311 -0.311 0.816 -0.311 1.127 0 l 7.657 7.658 c 0.15 0.151 0.233 0.351 0.233 0.563 c 0 0.212 -0.083 0.412 -0.233 0.563 l -1.155 1.156 c -1.133 1.132 -1.433 2.837 -0.744 4.244 c 0.475 0.973 0.891 1.976 1.237 2.98 c 0.513 1.483 1.938 2.48 3.548 2.48 h 1.612 c 0.439 0 0.797 0.357 0.797 0.797 V 37.564 z" style="stroke: none; stroke-width: 1; stroke-dasharray: none; stroke-linecap: butt; stroke-linejoin: miter; stroke-miterlimit: 10; fill: rgb(18,34,46); fill-rule: nonzero; opacity: 1;" transform=" matrix(1 0 0 1 0 0) " stroke-linecap="round" />
</g>
</svg>